<svg width="32" height="32" viewBox="0 0 32 32" fill="none" xmlns="http://www.w3.org/2000/svg">
<path d="M12.6666 7.60002C14.1333 6.80002 15.8666 6.53336 17.4666 6.93336C18.1333 7.06669 18.9333 6.66669 19.0666 6.00002C19.2 5.33336 18.8 4.53336 18.1333 4.40002C15.8666 3.73336 13.3333 4.13336 11.3333 5.20002C8.39998 6.93336 6.66665 10 6.66665 13.3334V20.6667C5.86665 21.3334 5.33331 22.2667 5.33331 23.3334C5.33331 25.2 6.79998 26.6667 8.66665 26.6667H12.2666C12.8 28.2667 14.2666 29.3334 16 29.3334C17.7333 29.3334 19.2 28.2667 19.7333 26.6667H23.3333C25.2 26.6667 26.6666 25.2 26.6666 23.3334C26.6666 22.2667 26.1333 21.3334 25.3333 20.6667V15.4667C25.3333 14.6667 24.8 14.1334 24 14.1334C23.2 14.1334 22.6666 14.6667 22.6666 15.4667V20H9.33331V13.3334C9.33331 10.9334 10.6666 8.80002 12.6666 7.60002ZM23.3333 22.6667C23.7333 22.6667 24 22.9334 24 23.3334C24 23.7334 23.7333 24 23.3333 24H18.6666H13.3333H8.66665C8.26665 24 7.99998 23.7334 7.99998 23.3334C7.99998 22.9334 8.26665 22.6667 8.66665 22.6667H23.3333Z" fill="white"/>
<path d="M22.6666 13.3334C24.8758 13.3334 26.6666 11.5425 26.6666 9.33337C26.6666 7.12424 24.8758 5.33337 22.6666 5.33337C20.4575 5.33337 18.6666 7.12424 18.6666 9.33337C18.6666 11.5425 20.4575 13.3334 22.6666 13.3334Z" fill="#3684DF"/>
</svg>
