<svg width="32" height="32" viewBox="0 0 32 32" fill="none" xmlns="http://www.w3.org/2000/svg">
<g clip-path="url(#clip0_24_312)">
<path d="M13 26C12.8684 26.0008 12.7379 25.9755 12.6161 25.9258C12.4943 25.876 12.3834 25.8027 12.29 25.71L3.29 16.71C3.19627 16.617 3.12188 16.5064 3.07111 16.3846C3.02034 16.2627 2.9942 16.132 2.9942 16C2.9942 15.868 3.02034 15.7373 3.07111 15.6154C3.12188 15.4936 3.19627 15.383 3.29 15.29L12.29 6.29C12.3832 6.19676 12.4939 6.1228 12.6158 6.07234C12.7376 6.02188 12.8681 5.99591 13 5.99591C13.1319 5.99591 13.2624 6.02188 13.3842 6.07234C13.5061 6.1228 13.6168 6.19676 13.71 6.29C13.8032 6.38324 13.8772 6.49393 13.9277 6.61575C13.9781 6.73758 14.0041 6.86814 14.0041 7C14.0041 7.13186 13.9781 7.26243 13.9277 7.38425C13.8772 7.50607 13.8032 7.61676 13.71 7.71L5.41 16L13.71 24.29C13.8037 24.383 13.8781 24.4936 13.9289 24.6154C13.9797 24.7373 14.0058 24.868 14.0058 25C14.0058 25.132 13.9797 25.2627 13.9289 25.3846C13.8781 25.5064 13.8037 25.617 13.71 25.71C13.6166 25.8027 13.5057 25.876 13.3839 25.9258C13.2621 25.9755 13.1316 26.0008 13 26Z" fill="white"/>
<path d="M28 17H4C3.73478 17 3.48043 16.8946 3.29289 16.7071C3.10536 16.5196 3 16.2652 3 16C3 15.7348 3.10536 15.4804 3.29289 15.2929C3.48043 15.1054 3.73478 15 4 15H28C28.2652 15 28.5196 15.1054 28.7071 15.2929C28.8946 15.4804 29 15.7348 29 16C29 16.2652 28.8946 16.5196 28.7071 16.7071C28.5196 16.8946 28.2652 17 28 17Z" fill="white"/>
</g>
<defs>
<clipPath id="clip0_24_312">
<rect width="32" height="32" fill="white"/>
</clipPath>
</defs>
</svg>
