<svg width="26" height="25" viewBox="0 0 26 25" fill="none" xmlns="http://www.w3.org/2000/svg">
<path d="M24.9166 19.7917C24.9166 20.3442 24.6884 20.8741 24.282 21.2648C23.8757 21.6555 23.3246 21.875 22.75 21.875H3.24998C2.67534 21.875 2.12424 21.6555 1.71792 21.2648C1.31159 20.8741 1.08331 20.3442 1.08331 19.7917V8.33333C1.08331 7.7808 1.31159 7.25089 1.71792 6.86019C2.12424 6.46949 2.67534 6.25 3.24998 6.25H7.58331L9.74998 3.125H16.25L18.4166 6.25H22.75C23.3246 6.25 23.8757 6.46949 24.282 6.86019C24.6884 7.25089 24.9166 7.7808 24.9166 8.33333V19.7917Z" stroke="white" stroke-width="2" stroke-linecap="round" stroke-linejoin="round"/>
<path d="M13 17.7083C15.3933 17.7083 17.3334 15.8429 17.3334 13.5417C17.3334 11.2405 15.3933 9.375 13 9.375C10.6068 9.375 8.66669 11.2405 8.66669 13.5417C8.66669 15.8429 10.6068 17.7083 13 17.7083Z" stroke="white" stroke-width="2" stroke-linecap="round" stroke-linejoin="round"/>
</svg>
