<svg width="21" height="21" viewBox="0 0 21 21" fill="none" xmlns="http://www.w3.org/2000/svg">
<g clip-path="url(#clip0_10_267)">
<path d="M7.35 17.85H2.1C1.54305 17.85 1.0089 17.6287 0.615076 17.2349C0.221249 16.8411 0 16.307 0 15.75V2.1C0 0.945 0.945 0 2.1 0H18.9C19.457 0 19.9911 0.221249 20.3849 0.615076C20.7787 1.0089 21 1.54305 21 2.1V15.75C21 16.307 20.7787 16.8411 20.3849 17.2349C19.9911 17.6287 19.457 17.85 18.9 17.85H13.65L17.85 19.95V21H3.15V19.95L7.35 17.85ZM2.1 2.1V13.65H18.9V2.1H2.1Z" fill="#C1C1C1"/>
</g>
<defs>
<clipPath id="clip0_10_267">
<rect width="21" height="21" fill="white"/>
</clipPath>
</defs>
</svg>
