<svg width="34" height="34" viewBox="0 0 34 34" fill="none" xmlns="http://www.w3.org/2000/svg">
<path d="M22.6312 6.53438C25.998 6.53438 28.734 9.27695 28.734 12.6637C28.734 14.4035 28.0102 15.9707 26.8547 17.0863L17 27.034L6.97266 16.907C5.92344 15.8047 5.27266 14.3105 5.27266 12.6637C5.27266 9.27695 8.00195 6.53438 11.3754 6.53438C13.9121 6.53438 16.0836 8.08828 17.0066 10.3062C17.9164 8.09492 20.0945 6.53438 22.6312 6.53438ZM22.6312 5.51172C20.3867 5.51172 18.3281 6.56094 17 8.2875C15.6719 6.56094 13.6133 5.51172 11.3687 5.51172C7.44414 5.51172 4.25 8.71914 4.25 12.6637C4.25 14.5164 4.95391 16.2762 6.23555 17.6176L16.2762 27.7578L17 28.4883L17.7238 27.7578L27.5719 17.8102C28.9664 16.4621 29.75 14.6293 29.75 12.6637C29.75 8.71914 26.5559 5.51172 22.6312 5.51172Z" fill="#C1C1C1"/>
</svg>
