<svg width="24" height="23" viewBox="0 0 24 23" fill="none" xmlns="http://www.w3.org/2000/svg">
<path d="M5.53644 10.6465H10.3594C10.7738 10.6465 11.1094 10.3248 11.1094 9.92773V5.30572C11.1094 4.90862 10.7738 4.58698 10.3594 4.58698H5.53644C5.12206 4.58698 4.78644 4.90862 4.78644 5.30572V9.92773C4.78644 10.3248 5.12206 10.6465 5.53644 10.6465ZM6.28644 6.02447H9.6094V9.20898H6.28644V6.02447Z" fill="white"/>
<path d="M13.6406 10.6465H18.4636C18.878 10.6465 19.2136 10.3248 19.2136 9.92773V5.30572C19.2136 4.90862 18.878 4.58698 18.4636 4.58698H13.6406C13.2262 4.58698 12.8906 4.90862 12.8906 5.30572V9.92773C12.8906 10.3248 13.2262 10.6465 13.6406 10.6465ZM14.3906 6.02447H17.7136V9.20898H14.3906V6.02447Z" fill="white"/>
<path d="M4.78644 17.6943C4.78644 18.0914 5.12206 18.413 5.53644 18.413H10.3594C10.7738 18.413 11.1094 18.0914 11.1094 17.6943V13.0723C11.1094 12.6752 10.7738 12.3535 10.3594 12.3535H5.53644C5.12206 12.3535 4.78644 12.6752 4.78644 13.0723V17.6943ZM6.28644 13.791H9.6094V16.9755H6.28644V13.791Z" fill="white"/>
<path d="M12.8906 17.6943C12.8906 18.0914 13.2262 18.413 13.6406 18.413H18.4636C18.878 18.413 19.2136 18.0914 19.2136 17.6943V13.0723C19.2136 12.6752 18.878 12.3535 18.4636 12.3535H13.6406C13.2262 12.3535 12.8906 12.6752 12.8906 13.0723V17.6943ZM14.3906 13.791H17.7136V16.9755H14.3906V13.791Z" fill="white"/>
</svg>
