<svg width="28" height="27" viewBox="0 0 28 27" fill="none" xmlns="http://www.w3.org/2000/svg">
<path d="M26.5331 13.9624C26.2538 14.7066 25.5619 15.1875 24.7696 15.1875H24.125V24.4687C24.125 24.9345 23.747 25.3125 23.2813 25.3125H18.2188V19.4062C18.2188 17.08 16.3262 15.1875 14 15.1875C11.6738 15.1875 9.78126 17.08 9.78126 19.4062V25.3125H4.71876C4.25301 25.3125 3.87501 24.9345 3.87501 24.4687V15.1875H3.22954C2.43726 15.1875 1.74539 14.7074 1.4661 13.9632C1.18682 13.219 1.39185 12.4006 1.98923 11.8792L11.8434 2.54728C13.0533 1.40231 14.9475 1.40231 16.1566 2.54728L26.0344 11.9011C26.6065 12.3997 26.8124 13.2182 26.5331 13.9624Z" fill="white"/>
</svg>
