<svg width="30" height="29" viewBox="0 0 30 29" fill="none" xmlns="http://www.w3.org/2000/svg">
<g clip-path="url(#clip0_16_288)">
<path d="M24.6667 2.41667H10.1667C8.83148 2.41667 7.75002 3.49813 7.75002 4.83333V19.3333C7.75002 20.6685 8.83148 21.75 10.1667 21.75H24.6667C26.0019 21.75 27.0834 20.6685 27.0834 19.3333V4.83333C27.0834 3.49813 26.0019 2.41667 24.6667 2.41667ZM22.25 8.45833H18.625V15.1042C18.625 16.7717 17.2717 18.125 15.6042 18.125C13.9367 18.125 12.5834 16.7717 12.5834 15.1042C12.5834 13.4367 13.9367 12.0833 15.6042 12.0833C16.2869 12.0833 16.9092 12.319 17.4167 12.6996V6.04167H22.25V8.45833ZM5.33335 7.25H2.91669V24.1667C2.91669 25.5019 3.99815 26.5833 5.33335 26.5833H22.25V24.1667H5.33335V7.25Z" fill="#C1C1C1"/>
</g>
<defs>
<clipPath id="clip0_16_288">
<rect width="29" height="29" fill="white" transform="translate(0.5)"/>
</clipPath>
</defs>
</svg>
