<svg width="29" height="29" viewBox="0 0 29 29" fill="none" xmlns="http://www.w3.org/2000/svg">
<path d="M14.8021 2.41669C13.0824 2.41626 11.3833 2.78998 9.82256 3.51193C8.26182 4.23388 6.87684 5.28676 5.76373 6.59753L4.1204 5.13544C3.94613 4.9826 3.73159 4.88311 3.50234 4.84883C3.2731 4.81455 3.03883 4.84693 2.82748 4.94211C2.61548 5.03741 2.43546 5.19183 2.30901 5.38686C2.18256 5.58189 2.11505 5.80926 2.11456 6.04169V10.875C2.11456 11.1955 2.24187 11.5028 2.46848 11.7294C2.69508 11.9561 3.00243 12.0834 3.3229 12.0834H8.7604C9.0038 12.0826 9.24132 12.0084 9.44184 11.8704C9.64235 11.7324 9.79652 11.5371 9.88415 11.31C9.97323 11.0799 9.98972 10.828 9.93139 10.5882C9.87307 10.3485 9.74273 10.1323 9.5579 9.96878L7.56415 8.19253C8.45601 7.13953 9.56663 6.29353 10.8187 5.71341C12.0708 5.13328 13.4342 4.83297 14.8141 4.83336C16.5862 4.83307 18.3243 5.31992 19.8384 6.24068C21.3525 7.16145 22.5844 8.4807 23.3994 10.0543C24.2144 11.6278 24.5812 13.3951 24.4596 15.1631C24.3381 16.931 23.7329 18.6315 22.7102 20.0787C21.6875 21.5259 20.2867 22.6642 18.6608 23.3691C17.0349 24.0739 15.2466 24.3183 13.4912 24.0755C11.7358 23.8327 10.081 23.1121 8.70748 21.9923C7.334 20.8725 6.29475 19.3968 5.70331 17.7263C5.59756 17.4234 5.37583 17.175 5.08691 17.0356C4.79798 16.8963 4.46553 16.8774 4.16269 16.9832C3.85984 17.0889 3.61141 17.3106 3.47205 17.5996C3.33269 17.8885 3.31381 18.2209 3.41956 18.5238C4.15746 20.6132 5.45573 22.4595 7.17236 23.8608C8.88899 25.262 10.9579 26.1642 13.1528 26.4687C15.3477 26.7732 17.5841 26.4683 19.6173 25.5873C21.6506 24.7063 23.4024 23.2832 24.6813 21.4735C25.9601 19.6639 26.7167 17.5374 26.8683 15.3266C27.0199 13.1159 26.5606 10.9061 25.5408 8.93879C24.5209 6.97151 22.9797 5.32255 21.0858 4.17226C19.1918 3.02197 17.018 2.41464 14.8021 2.41669Z" fill="white"/>
<path d="M19.3334 19.3333C19.0719 19.3333 18.8175 19.2485 18.6084 19.0916L13.775 15.4666C13.6249 15.3541 13.5031 15.2081 13.4193 15.0404C13.3354 14.8726 13.2917 14.6876 13.2917 14.5V9.66665C13.2917 9.34618 13.419 9.03883 13.6456 8.81223C13.8722 8.58562 14.1796 8.45831 14.5 8.45831C14.8205 8.45831 15.1278 8.58562 15.3544 8.81223C15.581 9.03883 15.7084 9.34618 15.7084 9.66665V13.8958L20.0584 17.1583C20.1853 17.2535 20.2922 17.3728 20.3731 17.5093C20.4539 17.6459 20.5071 17.797 20.5295 17.9541C20.552 18.1112 20.5433 18.2711 20.5039 18.4249C20.4645 18.5786 20.3952 18.723 20.3 18.85C20.1875 19.0001 20.0415 19.1219 19.8737 19.2057C19.706 19.2896 19.5209 19.3333 19.3334 19.3333Z" fill="white"/>
</svg>
