<svg width="27" height="27" viewBox="0 0 27 27" fill="none" xmlns="http://www.w3.org/2000/svg">
<g clip-path="url(#clip0_10_156)">
<path d="M14.3438 26.1563H12.6563C12.0344 26.1607 11.4326 25.9362 10.9658 25.5253C10.4989 25.1145 10.1996 24.5462 10.125 23.9288C9.55879 23.7498 9.00845 23.524 8.47969 23.2538C7.9901 23.6409 7.37474 23.8335 6.7518 23.7945C6.12886 23.7556 5.54227 23.4879 5.10469 23.0428L3.95719 21.8531C3.51212 21.4156 3.2444 20.829 3.20547 20.206C3.16653 19.5831 3.35913 18.9677 3.74626 18.4781C3.47812 17.963 3.25237 17.4268 3.07126 16.875C2.45386 16.8004 1.88553 16.5011 1.4747 16.0343C1.06386 15.5674 0.839263 14.9656 0.843755 14.3438V12.6563C0.839263 12.0344 1.06386 11.4326 1.4747 10.9658C1.88553 10.4989 2.45386 10.1996 3.07126 10.125C3.2502 9.55879 3.47598 9.00845 3.74626 8.47969C3.35913 7.9901 3.16653 7.37474 3.20547 6.7518C3.2444 6.12886 3.51212 5.54227 3.95719 5.10469L5.14688 3.95719C5.58446 3.51212 6.17105 3.2444 6.79399 3.20547C7.41693 3.16653 8.03229 3.35913 8.52188 3.74626C9.03705 3.47812 9.57319 3.25237 10.125 3.07126C10.1996 2.45386 10.4989 1.88553 10.9658 1.4747C11.4326 1.06386 12.0344 0.839263 12.6563 0.843755H14.3438C14.9656 0.839263 15.5674 1.06386 16.0343 1.4747C16.5011 1.88553 16.8004 2.45386 16.875 3.07126C17.4412 3.2502 17.9916 3.47598 18.5203 3.74626C19.0099 3.35913 19.6253 3.16653 20.2482 3.20547C20.8711 3.2444 21.4577 3.51212 21.8953 3.95719L23.0428 5.14688C23.4879 5.58446 23.7556 6.17105 23.7945 6.79399C23.8335 7.41693 23.6409 8.03229 23.2538 8.52188C23.524 9.05063 23.7498 9.60097 23.9288 10.1672C24.5389 10.2409 25.1015 10.5341 25.5113 10.9922C25.9212 11.4502 26.1504 12.0417 26.1563 12.6563V14.3438C26.1607 14.9656 25.9362 15.5674 25.5253 16.0343C25.1145 16.5011 24.5462 16.8004 23.9288 16.875C23.7498 17.4412 23.524 17.9916 23.2538 18.5203C23.6409 19.0099 23.8335 19.6253 23.7945 20.2482C23.7556 20.8711 23.4879 21.4577 23.0428 21.8953L21.8531 23.0428C21.4156 23.4879 20.829 23.7556 20.206 23.7945C19.5831 23.8335 18.9677 23.6409 18.4781 23.2538C17.9494 23.524 17.399 23.7498 16.8328 23.9288C16.7591 24.5389 16.4659 25.1015 16.0079 25.5113C15.5499 25.9212 14.9584 26.1504 14.3438 26.1563ZM8.36157 21.3722C8.51335 21.3696 8.6627 21.4106 8.79188 21.4903C9.5379 21.9291 10.3416 22.2614 11.1797 22.4775C11.3653 22.5253 11.5292 22.635 11.6442 22.7883C11.7592 22.9417 11.8186 23.1296 11.8125 23.3213V23.625C11.8125 23.8488 11.9014 24.0634 12.0596 24.2216C12.2179 24.3799 12.4325 24.4688 12.6563 24.4688H14.3438C14.5675 24.4688 14.7821 24.3799 14.9404 24.2216C15.0986 24.0634 15.1875 23.8488 15.1875 23.625V23.2959C15.1814 23.1043 15.2408 22.9164 15.3558 22.763C15.4709 22.6096 15.6347 22.5 15.8203 22.4522C16.6584 22.2361 17.4621 21.9038 18.2081 21.465C18.3684 21.3706 18.5555 21.3318 18.7401 21.3547C18.9248 21.3776 19.0967 21.4609 19.2291 21.5916L19.4653 21.8278C19.5438 21.9069 19.6371 21.9697 19.7399 22.0125C19.8427 22.0553 19.953 22.0774 20.0644 22.0774C20.1758 22.0774 20.286 22.0553 20.3889 22.0125C20.4917 21.9697 20.585 21.9069 20.6634 21.8278L21.8531 20.6381C21.9322 20.5597 21.995 20.4664 22.0378 20.3636C22.0807 20.2607 22.1027 20.1505 22.1027 20.0391C22.1027 19.9277 22.0807 19.8174 22.0378 19.7146C21.995 19.6118 21.9322 19.5184 21.8531 19.44L21.6169 19.2038C21.4862 19.0713 21.4029 18.8994 21.38 18.7148C21.3571 18.5302 21.3959 18.3431 21.4903 18.1828C21.9291 17.4368 22.2614 16.6331 22.4775 15.795C22.5253 15.6094 22.635 15.4455 22.7883 15.3305C22.9417 15.2155 23.1296 15.1561 23.3213 15.1622H23.625C23.8488 15.1622 24.0634 15.0733 24.2216 14.9151C24.3799 14.7568 24.4688 14.5422 24.4688 14.3184V12.6563C24.4688 12.4325 24.3799 12.2179 24.2216 12.0596C24.0634 11.9014 23.8488 11.8125 23.625 11.8125H23.2959C23.1043 11.8186 22.9164 11.7592 22.763 11.6442C22.6096 11.5292 22.5 11.3653 22.4522 11.1797C22.2361 10.3416 21.9038 9.5379 21.465 8.79188C21.3706 8.63156 21.3318 8.44453 21.3547 8.25989C21.3776 8.07525 21.4609 7.90335 21.5916 7.77094L21.8278 7.53469C21.9069 7.45625 21.9697 7.36294 22.0125 7.26012C22.0553 7.1573 22.0774 7.04702 22.0774 6.93563C22.0774 6.82424 22.0553 6.71396 22.0125 6.61114C21.9697 6.50832 21.9069 6.41501 21.8278 6.33657L20.6634 5.14688C20.585 5.0678 20.4917 5.00503 20.3889 4.96219C20.286 4.91935 20.1758 4.8973 20.0644 4.8973C19.953 4.8973 19.8427 4.91935 19.7399 4.96219C19.6371 5.00503 19.5438 5.0678 19.4653 5.14688L19.2291 5.38313C19.0967 5.51384 18.9248 5.59711 18.7401 5.62C18.5555 5.64289 18.3684 5.60411 18.2081 5.50969C17.4621 5.07091 16.6584 4.73862 15.8203 4.52251C15.6347 4.47467 15.4709 4.36505 15.3558 4.21169C15.2408 4.05833 15.1814 3.87036 15.1875 3.67876V3.37501C15.1875 3.15123 15.0986 2.93662 14.9404 2.77838C14.7821 2.62015 14.5675 2.53126 14.3438 2.53126H12.6563C12.4325 2.53126 12.2179 2.62015 12.0596 2.77838C11.9014 2.93662 11.8125 3.15123 11.8125 3.37501V3.70407C11.8186 3.89568 11.7592 4.08364 11.6442 4.237C11.5292 4.39036 11.3653 4.49999 11.1797 4.54782C10.3416 4.76394 9.5379 5.09622 8.79188 5.53501C8.63156 5.62942 8.44453 5.66821 8.25989 5.64532C8.07525 5.62243 7.90335 5.53915 7.77094 5.40844L7.53469 5.14688C7.45625 5.0678 7.36294 5.00503 7.26012 4.96219C7.1573 4.91935 7.04702 4.8973 6.93563 4.8973C6.82424 4.8973 6.71396 4.91935 6.61114 4.96219C6.50832 5.00503 6.41501 5.0678 6.33657 5.14688L5.14688 6.33657C5.0678 6.41501 5.00503 6.50832 4.96219 6.61114C4.91935 6.71396 4.8973 6.82424 4.8973 6.93563C4.8973 7.04702 4.91935 7.1573 4.96219 7.26012C5.00503 7.36294 5.0678 7.45625 5.14688 7.53469L5.38313 7.77094C5.51384 7.90335 5.59711 8.07525 5.62 8.25989C5.64289 8.44453 5.60411 8.63156 5.50969 8.79188C5.07091 9.5379 4.73862 10.3416 4.52251 11.1797C4.47467 11.3653 4.36505 11.5292 4.21169 11.6442C4.05833 11.7592 3.87036 11.8186 3.67876 11.8125H3.37501C3.15123 11.8125 2.93662 11.9014 2.77838 12.0596C2.62015 12.2179 2.53126 12.4325 2.53126 12.6563V14.3438C2.53126 14.5675 2.62015 14.7821 2.77838 14.9404C2.93662 15.0986 3.15123 15.1875 3.37501 15.1875H3.70407C3.89568 15.1814 4.08364 15.2408 4.237 15.3558C4.39036 15.4709 4.49999 15.6347 4.54782 15.8203C4.76394 16.6584 5.09622 17.4621 5.53501 18.2081C5.62942 18.3684 5.66821 18.5555 5.64532 18.7401C5.62243 18.9248 5.53915 19.0967 5.40844 19.2291L5.17219 19.4653C5.09311 19.5438 5.03034 19.6371 4.9875 19.7399C4.94467 19.8427 4.92261 19.953 4.92261 20.0644C4.92261 20.1758 4.94467 20.286 4.9875 20.3889C5.03034 20.4917 5.09311 20.585 5.17219 20.6634L6.33657 21.8531C6.41501 21.9322 6.50832 21.995 6.61114 22.0378C6.71396 22.0807 6.82424 22.1027 6.93563 22.1027C7.04702 22.1027 7.1573 22.0807 7.26012 22.0378C7.36294 21.995 7.45625 21.9322 7.53469 21.8531L7.77094 21.6169C7.9281 21.461 8.14022 21.3731 8.36157 21.3722Z" fill="white"/>
<path d="M13.5 19.4063C12.3319 19.4063 11.1899 19.0599 10.2187 18.4109C9.24739 17.7619 8.49037 16.8395 8.04334 15.7602C7.59631 14.681 7.47935 13.4935 7.70724 12.3478C7.93513 11.2021 8.49765 10.1497 9.32365 9.32365C10.1497 8.49765 11.2021 7.93513 12.3478 7.70724C13.4935 7.47935 14.681 7.59631 15.7602 8.04334C16.8395 8.49037 17.7619 9.24739 18.4109 10.2187C19.0599 11.1899 19.4063 12.3319 19.4063 13.5C19.4063 15.0664 18.784 16.5687 17.6764 17.6764C16.5687 18.784 15.0664 19.4063 13.5 19.4063ZM13.5 9.28125C12.6656 9.28125 11.85 9.52868 11.1562 9.99224C10.4624 10.4558 9.92169 11.1147 9.60239 11.8856C9.28308 12.6564 9.19953 13.5047 9.36231 14.323C9.5251 15.1414 9.92689 15.8931 10.5169 16.4831C11.1069 17.0731 11.8586 17.4749 12.677 17.6377C13.4953 17.8005 14.3436 17.7169 15.1144 17.3976C15.8853 17.0783 16.5442 16.5376 17.0078 15.8438C17.4713 15.15 17.7188 14.3344 17.7188 13.5C17.7188 12.3811 17.2743 11.3081 16.4831 10.5169C15.6919 9.72573 14.6189 9.28125 13.5 9.28125Z" fill="white"/>
</g>
<defs>
<clipPath id="clip0_10_156">
<rect width="27" height="27" fill="white"/>
</clipPath>
</defs>
</svg>
