<svg width="25" height="25" viewBox="0 0 25 25" fill="none" xmlns="http://www.w3.org/2000/svg">
<g clip-path="url(#clip0_16_294)">
<path d="M12.5 0.390625C5.5998 0.390625 0 5.81543 0 12.5C0 19.1846 5.5998 24.6094 12.5 24.6094C19.4002 24.6094 25 19.1846 25 12.5C25 5.81543 19.4002 0.390625 12.5 0.390625ZM17.5756 18.208C17.3639 18.208 17.2329 18.1445 17.0363 18.0322C13.8911 16.1963 10.2319 16.1182 6.61794 16.8359C6.42137 16.8848 6.16431 16.9629 6.01815 16.9629C5.52923 16.9629 5.22177 16.5869 5.22177 16.1914C5.22177 15.6885 5.52923 15.4492 5.90726 15.3711C10.0353 14.4873 14.254 14.5654 17.8528 16.6504C18.1603 16.8408 18.3417 17.0117 18.3417 17.4561C18.3417 17.9004 17.9839 18.208 17.5756 18.208ZM18.9315 15.0049C18.6694 15.0049 18.4929 14.8926 18.3115 14.7998C15.1613 12.9932 10.4637 12.2656 6.28528 13.3643C6.04335 13.4277 5.9123 13.4912 5.68548 13.4912C5.14617 13.4912 4.70766 13.0664 4.70766 12.5439C4.70766 12.0215 4.96976 11.6748 5.48891 11.5332C6.89012 11.1523 8.32157 10.8691 10.4183 10.8691C13.6895 10.8691 16.8498 11.6553 19.3397 13.0908C19.748 13.3252 19.9093 13.6279 19.9093 14.0527C19.9042 14.5801 19.4808 15.0049 18.9315 15.0049ZM20.494 11.2842C20.2319 11.2842 20.0706 11.2207 19.8438 11.0937C16.255 9.01855 9.83871 8.52051 5.68548 9.64355C5.50403 9.69238 5.27722 9.77051 5.03528 9.77051C4.36996 9.77051 3.86089 9.26758 3.86089 8.61816C3.86089 7.9541 4.28427 7.57812 4.7379 7.45117C6.5121 6.94824 8.49798 6.70898 10.6603 6.70898C14.3397 6.70898 18.1956 7.45117 21.0131 9.04297C21.4062 9.26269 21.6633 9.56543 21.6633 10.1465C21.6633 10.8105 21.1089 11.2842 20.494 11.2842Z" fill="#C1C1C1"/>
</g>
<defs>
<clipPath id="clip0_16_294">
<rect width="25" height="25" fill="white"/>
</clipPath>
</defs>
</svg>
