<svg width="15" height="16" viewBox="0 0 15 16" fill="none" xmlns="http://www.w3.org/2000/svg">
<path fill-rule="evenodd" clip-rule="evenodd" d="M6.53256 1.31974C7.03262 0.708891 7.96681 0.708889 8.46694 1.31974L9.08681 2.0769L10.0022 1.73113C10.7408 1.45218 11.5497 1.91925 11.6774 2.69832L11.8357 3.66399L12.8014 3.82226C13.5805 3.94995 14.0476 4.75894 13.7686 5.49749L13.4228 6.41291L14.18 7.03281C14.7908 7.53294 14.7908 8.46706 14.18 8.96719L13.4228 9.58712L13.7686 10.5025C14.0476 11.2411 13.5805 12.0501 12.8014 12.1778L11.8357 12.336L11.6775 13.3017C11.5497 14.0808 10.7408 14.5478 10.0022 14.2689L9.08681 13.9231L8.46694 14.6803C7.96681 15.2911 7.03262 15.2911 6.53256 14.6803L5.91264 13.9231L4.9972 14.2689C4.25866 14.5478 3.44967 14.0808 3.32199 13.3017L3.16371 12.336L2.19804 12.1778C1.41897 12.0501 0.951906 11.2411 1.23086 10.5025L1.57662 9.58712L0.819468 8.96719C0.208616 8.46706 0.208613 7.53294 0.819468 7.03281L1.57662 6.41291L1.23086 5.49749C0.9519 4.75894 1.41897 3.94995 2.19805 3.82226L3.16371 3.66399L3.32199 2.69832C3.44967 1.91925 4.25867 1.45218 4.9972 1.73113L5.91264 2.0769L6.53256 1.31974ZM7.00444 10.6294L11.3794 6.25445L10.4956 5.37057L6.5625 9.30363L4.50444 7.24556L3.62056 8.12944L6.12055 10.6294C6.23777 10.7467 6.39675 10.8125 6.5625 10.8125C6.72825 10.8125 6.88725 10.7467 7.00444 10.6294Z" fill="#1172E1"/>
</svg>
