<svg xmlns="http://www.w3.org/2000/svg" width="256" height="256"><path fill="#1976D2" fill-opacity=".016" fill-rule="evenodd" d="M0 128.004v128.004l128.25-.254 128.25-.254.254-127.75L257.008 0H0v128.004m.485.496c0 70.4.119 99.053.265 63.672.146-35.38.146-92.98 0-128C.604 29.153.485 58.1.485 128.5"/><path fill="#1976D2" fill-opacity=".071" fill-rule="evenodd" d="M112 4.118C67.726 9.185 27.155 39.024 9.765 79.309 3.199 94.522.851 105.335.28 123c-.558 17.263.756 27.741 5.176 41.273 7.317 22.4 20.157 41.426 38.173 56.559 21.349 17.934 44.684 27.624 73.109 30.361 61.951 5.964 120.329-34.391 135.781-93.862 1.364-5.252 2.481-10.824 2.481-12.381 0-1.558.45-3.11 1-3.45.592-.366 1-6.53 1-15.118 0-9.412-.351-14.283-1-13.882-.58.359-1-.62-1-2.332 0-1.622-1.096-7.161-2.435-12.309C236.614 36.543 176.861-3.305 112 4.118M76.5 70.559c-5.5.744-14.485 2.366-19.966 3.604-12.629 2.853-15.567 5.13-16.287 12.622-.468 4.865-.292 5.37 3.028 8.69 4.32 4.32 6.219 4.417 21.232 1.086 16.419-3.642 32.372-4.933 52.493-4.246 33.589 1.147 59.912 7.077 83.041 18.705 9.533 4.794 13.303 4.79 18.109-.017 2.364-2.364 2.85-3.691 2.85-7.791 0-6.777-2.135-9.121-13.276-14.577-17.732-8.683-41.77-15.255-66.283-18.123-15.963-1.867-50.979-1.842-64.941.047m10 41.469c-16.64 1.886-32.421 5.893-35.555 9.027-2.999 2.999-2.674 10.307.603 13.584 3.043 3.043 6.077 2.947 22.452-.709 9.313-2.08 13.043-2.344 33-2.341 20.593.003 23.568.23 35.102 2.683 15.236 3.24 27.014 7.281 40.586 13.926 11.239 5.503 14.168 5.713 18.305 1.309 3.011-3.205 3.001-9.82-.019-13.035-7.212-7.676-39.055-19.214-63.474-22.997-12.197-1.89-40.103-2.682-51-1.447M.4 127.5c.001 8.25.156 11.492.344 7.204.188-4.287.187-11.037-.002-15-.19-3.962-.343-.454-.342 7.796m85.1 25.572c-16.385 1.895-26.93 4.267-29.24 6.578-5.003 5.002-.691 14.248 6.063 13.002 1.748-.322 6.935-1.274 11.528-2.114 36.463-6.674 67.134-3.286 95.403 10.538 10.365 5.069 12.366 5.338 15.996 2.151 2.218-1.948 2.328-8.506.179-10.655-4.293-4.293-21.682-12.025-34.934-15.533-17.478-4.626-44.847-6.297-64.995-3.967"/><path fill="#1976D2" fill-opacity=".249" fill-rule="evenodd" d="M118 4.084C93.834 6.145 70.984 14.326 52.22 27.633c-8.598 6.098-23.465 20.955-29.537 29.517C13.181 70.55 5.166 89.382 1.893 106c-1.651 8.386-1.651 34.614 0 43 3.269 16.599 11.27 35.409 20.779 48.85 6.804 9.619 22.495 24.818 32.328 31.315 11.209 7.406 18.995 11.22 31.331 15.347 38.27 12.806 80.909 7.135 114.555-15.236 9.965-6.626 25.639-21.809 32.442-31.426 10.381-14.674 18.797-35.399 20.847-51.337.567-4.407 1.434-8.794 1.928-9.749 1.263-2.445 1.169-20.05-.103-19.264-.599.37-1.007-.91-1.017-3.191-.066-14.386-9.952-40.485-21.582-56.976-10.681-15.144-30.126-31.727-47.23-40.277C166.772 7.357 139.797 2.225 118 4.084M84.564 69.076c-12.062 1.152-33.741 5.44-38.199 7.555-10.492 4.979-8.642 19.958 2.807 22.723 1.567.378 6.942-.369 13-1.808 5.68-1.348 14.153-2.99 18.828-3.648 11.087-1.559 43.774-1.546 56.5.023 23.181 2.858 45.649 9.109 61.643 17.151 8.706 4.377 12.922 4.86 17.29 1.982 5.405-3.564 6.875-8.988 4.181-15.435-1.142-2.734-3.118-4.204-11.25-8.374-17.379-8.911-39.832-15.488-64.334-18.844-13.304-1.823-47.425-2.57-60.466-1.325M79 112.649c-12.272 1.878-23.402 4.729-26.577 6.809-5.079 3.328-5.782 9.99-1.553 14.723 3.528 3.948 6.702 4.112 19.63 1.011 35.192-8.44 79.764-3.113 112.127 13.401 11.61 5.924 16.577 5.781 19.863-.573 3.488-6.746 1.018-11.51-8.725-16.83-16.356-8.931-38.701-15.842-60.421-18.689-14.301-1.875-41.604-1.8-54.344.148M.365 127.5c.003 5.5.171 7.622.373 4.716.203-2.905.201-7.405-.004-10-.206-2.594-.371-.216-.369 5.284M97 151.596c-17.975 1.528-35.622 4.445-39.724 6.564-3.394 1.755-4.765 6.994-2.815 10.764 2.132 4.123 5.208 4.667 15.428 2.732 15.907-3.011 27.977-3.922 44.491-3.357 22.59.774 37.028 4.26 54.938 13.267 4.85 2.439 9.933 4.434 11.295 4.434 3.362 0 7.387-4.213 7.387-7.732 0-4.768-2.859-7.319-14.398-12.847-12.355-5.92-24.582-9.762-37.931-11.921-9.266-1.499-30.904-2.564-38.671-1.904"/><path fill="#1976D2" fill-opacity=".103" fill-rule="evenodd" d="M115.167 5.073c-1.283.508-3.371.663-4.64.344-1.27-.318-2.61-.091-2.979.506-.369.596-1.719.821-3 .5-1.281-.322-2.635-.091-3.008.512-.373.604-1.117.827-1.653.495-.536-.331-1.61-.075-2.387.57-.777.645-1.851.901-2.387.57-.536-.332-1.276-.115-1.645.482-.369.596-1.285.848-2.037.56-.752-.289-1.637-.087-1.968.448-.331.535-.989.733-1.463.44-.474-.293-1.149-.068-1.5.5-.351.568-1.026.793-1.5.5-.474-.293-1.149-.068-1.5.5-.351.568-1.057.774-1.569.457-.512-.316-.931-.072-.931.543s-.419.859-.931.543c-.512-.317-1.218-.111-1.569.457-.351.568-1.057.774-1.569.457-.512-.316-.931-.072-.931.543s-.45.84-1 .5c-.55-.34-1-.115-1 .5s-.45.84-1 .5c-.55-.34-1-.141-1 .441S71.132 18 70.071 18c-1.06 0-2.582.654-3.381 1.452-.798.799-1.73 1.174-2.071.834-.34-.341-.619-.068-.619.606 0 .674-.45.948-1 .608-.55-.34-1-.141-1 .441S61.531 23 60.958 23c-.573 0-2.008.9-3.188 2-1.181 1.1-2.737 2-3.459 2-.721 0-1.311.45-1.311 1s-.513 1-1.14 1c-.627 0-1.715.788-2.419 1.75s-1.654 1.758-2.11 1.767C46.055 32.544 27 51.702 27 52.957c0 .608-.675 1.365-1.5 1.681-.825.317-1.5 1.118-1.5 1.78 0 .663-.9 2.171-2 3.352-1.1 1.18-2 2.615-2 3.188S19.523 64 18.941 64s-.823.382-.535.849c.289.466-.333 1.768-1.38 2.893-1.048 1.125-1.633 2.318-1.299 2.652.333.333.055.606-.619.606s-.948.45-.608 1c.34.55.115 1-.5 1s-.84.45-.5 1c.34.55.115 1-.5 1s-.84.45-.5 1c.34.55.115 1-.5 1s-.84.45-.5 1c.34.55.115 1-.5 1s-.859.419-.543.931c.317.512.111 1.218-.457 1.569-.568.351-.774 1.057-.457 1.569.316.512.072.931-.543.931s-.859.419-.543.931c.317.512.111 1.218-.457 1.569-.568.351-.793 1.026-.5 1.5.293.474.095 1.132-.44 1.463-.535.331-.719 1.262-.409 2.069.309.807.079 1.468-.513 1.468-.591 0-.834.629-.538 1.399.295.769.048 1.7-.548 2.069-.597.369-.826 1.089-.509 1.601.316.512.232 1.486-.187 2.163-.419.678-.888 2.141-1.043 3.25-.155 1.11-.515 3.368-.801 5.018-.978 5.638-1.745 13.996-1.745 19s.767 13.362 1.745 19c.286 1.65.646 3.908.801 5.018.155 1.109.624 2.572 1.043 3.25.419.677.503 1.651.187 2.163-.317.512-.088 1.232.509 1.601.596.369.848 1.285.56 2.037-.289.752-.087 1.637.448 1.968.535.331.733.989.44 1.463-.293.474-.068 1.149.5 1.5.568.351.793 1.026.5 1.5-.293.474-.068 1.149.5 1.5.568.351.774 1.057.457 1.569-.316.512-.098.931.484.931s.963.338.847.75c-.117.412.317 1.703.964 2.869.648 1.165.893 2.402.546 2.75-.347.347-.08.631.594.631.674 0 .948.45.608 1-.34.55-.115 1 .5 1s.84.45.5 1c-.34.55-.115 1 .5 1s.84.45.5 1c-.34.55-.115 1 .5 1s.84.45.5 1c-.34.55-.172 1 .374 1 .545 0 1.302.978 1.681 2.173s1.535 3.08 2.567 4.189c1.033 1.108 1.878 2.605 1.878 3.327 0 .721.45 1.311 1 1.311s1 .45 1 1c0 1.281 1.05 2.477 12.515 14.25 5.223 5.363 9.917 9.75 10.433 9.75s1.527.787 2.245 1.75c.719.963 2.545 2.389 4.057 3.169 1.513.78 2.75 1.793 2.75 2.25 0 .457.675.831 1.5.831s1.5.45 1.5 1 .675 1 1.5 1 1.5.477 1.5 1.059.45.781 1 .441 1-.115 1 .5.414.862.919.55c.506-.313 1.577.089 2.381.893.804.804 1.74 1.183 2.081.843.34-.341.619-.094.619.547 0 .642.9 1.167 2 1.167s2 .477 2 1.059.45.781 1 .441 1-.115 1 .5.419.859.931.543c.512-.317 1.218-.111 1.569.457.351.568 1.057.774 1.569.457.512-.316.931-.072.931.543s.419.859.931.543c.512-.317 1.218-.111 1.569.457.351.568 1.026.793 1.5.5.474-.293 1.149-.068 1.5.5.351.568 1.026.793 1.5.5.474-.293 1.132-.095 1.463.44.331.535 1.216.737 1.968.448.752-.288 1.668-.036 2.037.56.369.597 1.109.814 1.645.482.536-.331 1.61-.075 2.387.57.777.645 1.851.901 2.387.57.536-.332 1.28-.109 1.653.495.373.603 1.687.844 2.921.534 1.233-.309 2.572-.233 2.976.169 1.047 1.044 5.341 1.348 19.563 1.385 14.45.037 20.535-.353 21.566-1.385.402-.402 1.74-.478 2.973-.169 1.234.31 2.548.069 2.921-.534.373-.604 1.117-.827 1.653-.495.536.331 1.61.075 2.387-.57.777-.645 1.851-.901 2.387-.57.536.332 1.276.115 1.645-.482.369-.596 1.285-.848 2.037-.56.752.289 1.637.087 1.968-.448.331-.535.989-.733 1.463-.44.474.293 1.149.068 1.5-.5.351-.568 1.026-.793 1.5-.5.474.293 1.149.068 1.5-.5.351-.568 1.057-.774 1.569-.457.512.316.931.072.931-.543s.419-.859.931-.543c.512.317 1.218.111 1.569-.457.351-.568 1.057-.774 1.569-.457.512.316.931.072.931-.543s.45-.84 1-.5c.55.34 1 .141 1-.441s.338-1.01.75-.951c1.56.225 5.25-1.38 5.25-2.284 0-.518.45-.664 1-.324s1 .115 1-.5.45-.84 1-.5c.55.34 1 .115 1-.5s.45-.84 1-.5c.55.34 1 .141 1-.441s.675-1.059 1.5-1.059 1.5-.45 1.5-1 .675-1 1.5-1 1.5-.374 1.5-.831c0-.457 1.238-1.47 2.75-2.25s3.338-2.206 4.057-3.169c.718-.963 1.729-1.75 2.245-1.75s5.21-4.387 10.433-9.75c11.055-11.353 11.557-11.933 13.434-15.53.78-1.496 1.793-2.72 2.25-2.72.457 0 .831-.675.831-1.5s.477-1.5 1.059-1.5.823-.382.535-.849c-.289-.466.333-1.768 1.38-2.893 1.048-1.125 1.633-2.318 1.299-2.652-.333-.333-.055-.606.619-.606s.948-.45.608-1c-.34-.55-.115-1 .5-1s.84-.45.5-1c-.34-.55-.115-1 .5-1s.84-.45.5-1c-.34-.55-.115-1 .5-1s.84-.45.5-1c-.34-.55-.115-1 .5-1s.859-.419.543-.931c-.317-.512-.111-1.218.457-1.569.568-.351.774-1.057.457-1.569-.316-.512-.072-.931.543-.931s.859-.419.543-.931c-.317-.512-.111-1.218.457-1.569.568-.351.793-1.026.5-1.5-.293-.474-.095-1.132.44-1.463.535-.331.719-1.262.409-2.069-.309-.807-.079-1.468.513-1.468.591 0 .834-.629.538-1.399-.295-.769-.048-1.7.548-2.069.597-.369.826-1.089.509-1.601-.316-.512-.232-1.486.187-2.163.419-.678.888-2.141 1.043-3.25.155-1.11.515-3.368.801-5.018.286-1.65.685-5.394.886-8.32.201-2.925.874-5.828 1.496-6.45 1.414-1.414 1.537-10.1.13-9.23-.55.34-1.077-.421-1.171-1.691-.51-6.894-.796-9.596-1.302-12.309-.307-1.65-.685-3.908-.84-5.018-.155-1.109-.624-2.572-1.043-3.25-.419-.677-.503-1.651-.187-2.163.317-.512.088-1.232-.509-1.601-.596-.369-.848-1.285-.56-2.037.289-.752.087-1.637-.448-1.968-.535-.331-.733-.989-.44-1.463.293-.474.068-1.149-.5-1.5-.568-.351-.793-1.026-.5-1.5.293-.474.068-1.149-.5-1.5-.568-.351-.774-1.057-.457-1.569.316-.512.098-.931-.484-.931s-.963-.338-.847-.75c.117-.413-.317-1.703-.964-2.869-.648-1.165-.893-2.402-.546-2.75.347-.347.08-.631-.594-.631-.674 0-.948-.45-.608-1 .34-.55.115-1-.5-1s-.84-.45-.5-1c.34-.55.115-1-.5-1s-.84-.45-.5-1c.34-.55.115-1-.5-1s-.84-.45-.5-1c.34-.55.172-1-.374-1-.545 0-1.302-.978-1.681-2.173s-1.535-3.08-2.567-4.189C234.845 61.53 234 60.033 234 59.311c0-.721-.45-1.311-1-1.311s-1-.627-1-1.393-.675-1.652-1.5-1.969c-.825-.316-1.5-1.073-1.5-1.681 0-1.255-19.055-20.413-20.331-20.44-.456-.009-1.406-.805-2.11-1.767-.704-.963-1.792-1.75-2.419-1.75s-1.14-.45-1.14-1-.675-1-1.5-1-1.5-.45-1.5-1-.675-1-1.5-1-1.5-.45-1.5-1-.675-1-1.5-1-1.5-.477-1.5-1.059-.45-.781-1-.441-1 .066-1-.608c0-.674-.279-.947-.619-.606-.341.34-1.277-.039-2.081-.843-.804-.804-1.875-1.206-2.381-.893-.505.312-.919.091-.919-.491S185.1 17 184 17s-2-.477-2-1.059-.45-.781-1-.441-1 .115-1-.5-.419-.859-.931-.543c-.512.317-1.218.111-1.569-.457-.351-.568-1.057-.774-1.569-.457-.512.316-.931.072-.931-.543s-.419-.859-.931-.543c-.512.317-1.218.111-1.569-.457-.351-.568-1.026-.793-1.5-.5-.474.293-1.149.068-1.5-.5-.351-.568-1.026-.793-1.5-.5-.474.293-1.132.095-1.463-.44-.331-.535-1.216-.737-1.968-.448-.752.288-1.668.036-2.037-.56-.369-.597-1.109-.814-1.645-.482-.536.331-1.61.075-2.387-.57-.777-.645-1.851-.901-2.387-.57-.536.332-1.28.109-1.653-.495-.373-.603-1.687-.844-2.921-.534-1.233.309-2.572.233-2.976-.169-1.485-1.48-30.079-2.473-33.396-1.159m-25.676 62.77c-.333.333-2.718.709-5.298.836-2.581.127-6.493.495-8.693.818-2.2.323-5.125.608-6.5.633-1.375.026-3.005.465-3.623.976-.618.51-1.81.665-2.649.343s-1.834-.086-2.211.524c-.377.609-1.51.847-2.517.527-1.007-.32-2.109-.133-2.448.416-.339.548-1.277.743-2.084.433-.807-.309-1.468-.045-1.468.588s-.563 1.078-1.25.988c-3.051-.396-4.833.249-7.448 2.695-1.541 1.442-2.689 3.017-2.552 3.5.138.484-.227.88-.809.88-.582 0-.8.419-.484.931.317.512.118 1.213-.441 1.559-1.317.814-1.317 5.206 0 6.02.559.346.785 1.003.502 1.461-.672 1.087 6.424 8.183 7.511 7.511.458-.283 1.115-.057 1.461.502.83 1.343 5.213 1.306 6.052-.052.363-.588 1.275-.832 2.027-.544.752.289 1.637.087 1.968-.448a1.148 1.148 0 0 1 1.576-.37c.536.331 1.61.075 2.387-.57.777-.645 1.902-.87 2.5-.5.598.37 1.723.145 2.5-.5.777-.645 1.902-.87 2.5-.5.598.37 1.721.146 2.496-.497.774-.642 2.326-.877 3.447-.521 1.122.356 2.606.281 3.298-.167 1.617-1.047 4.924-1.175 29.759-1.157 25.739.018 29.201.148 30.759 1.157.692.448 2.176.523 3.298.167 1.121-.356 2.58-.2 3.241.347.661.547 2.327 1.024 3.702 1.06 3.203.084 8.5.776 8.5 1.11 0 .141.9.392 2 .558 1.1.165 3.125.584 4.5.93 1.375.347 2.95.729 3.5.85.55.12 1.563.571 2.25 1 .688.43 1.7.503 2.25.163.55-.34 1-.093 1 .548s.661.912 1.468.603c.807-.31 1.738-.126 2.069.409.331.535.989.733 1.463.44.474-.293 1.149-.068 1.5.5.351.568 1.026.793 1.5.5.474-.293 1.149-.068 1.5.5.351.568 1.057.774 1.569.457.512-.316.931-.05.931.591s.675.907 1.5.59c.825-.316 1.5-.139 1.5.393 0 .533.34.856.755.719.985-.327 12.526 5.452 13.48 6.75.404.55.741.607.75.128.008-.48.578-.427 1.265.119 1.884 1.495 9.248.812 12.218-1.134 3.9-2.556 5.229-7.076 4.609-15.68-.117-1.622-7.198-7.976-8.199-7.357-.483.298-.878.039-.878-.576s-.45-.84-1-.5c-.55.34-1 .115-1-.5s-.45-.84-1-.5c-.55.34-1 .115-1-.5s-.45-.84-1-.5c-.55.34-1 .115-1-.5s-.45-.84-1-.5c-.55.34-1 .115-1-.5s-.412-.864-.915-.553c-.503.311-1.072.093-1.264-.485-.193-.578-1.356-1.127-2.586-1.219-1.229-.093-2.235-.549-2.235-1.015 0-.465-.419-.587-.931-.271-.512.317-1.218.111-1.569-.457-.351-.568-1.057-.774-1.569-.457-.512.316-.931.05-.931-.591s-.675-.907-1.5-.59c-.825.316-1.5.153-1.5-.362s-.675-.678-1.5-.362c-.826.317-1.5.03-1.5-.638s-.674-.955-1.5-.638c-.825.316-1.5.091-1.5-.5 0-.592-.631-.834-1.402-.538-.771.296-1.709.232-2.084-.143-.374-.375-1.093-.737-1.597-.806-.505-.069-1.03-.239-1.167-.378s-1.15-.398-2.25-.575c-3.579-.578-4.98-.966-6.16-1.703-.638-.399-1.875-.451-2.75-.115-.916.351-1.59.095-1.59-.605 0-.789-.856-1.001-2.439-.604-1.341.337-2.729.142-3.084-.432s-1.47-.783-2.477-.463-2.144.077-2.525-.54c-.391-.634-1.754-.856-3.13-.51-1.34.336-2.979.26-3.641-.169-.662-.43-2.554-.902-4.204-1.05-1.65-.148-5.25-.493-8-.766-7.911-.786-45.339-1.293-46.009-.622m-4.15 43.415c-.314.507-2.058.642-3.878.301-1.891-.355-3.581-.178-3.946.414-.352.569-1.737.759-3.078.422-1.583-.397-2.439-.185-2.439.604 0 .711-.674.956-1.627.591-.894-.344-2.132-.228-2.75.256-1.051.825-2.65 1.111-6.873 1.229-.962.027-1.75.519-1.75 1.094 0 .575-.62.807-1.378.516-.758-.291-1.883-.024-2.5.593s-1.122.804-1.122.414c0-.389-1.337.484-2.972 1.941-1.635 1.456-2.733 3.035-2.441 3.508.292.472.124.859-.374.859-.759 0-.816 1.717-.272 8.205.12 1.435 5.221 5.813 6.124 5.255.514-.318.935-.101.935.481 0 1.319 5.666 1.409 6.473.103.325-.526 1.206-.721 1.958-.432.752.288 1.668.036 2.037-.56.369-.597 1.109-.814 1.645-.482.536.331 1.61.075 2.387-.57.777-.645 1.902-.87 2.5-.5.598.37 1.686.176 2.417-.431.731-.607 2.04-.831 2.908-.498.869.334 2.163.239 2.877-.209 1.874-1.177 5.062-1.336 26.798-1.336 22.05.001 24.987.142 26.759 1.289.692.448 2.117.542 3.166.209 1.049-.333 2.207-.119 2.575.476.368.595 1.493.82 2.5.5 1.007-.32 2.132-.095 2.5.5.368.595 1.493.82 2.5.5 1.007-.32 2.126-.106 2.485.476.359.581 1.092.786 1.628.454.536-.331 1.63-.058 2.431.606.801.665 1.456.874 1.456.464s.675-.185 1.5.5 1.5.91 1.5.5c0-.41.655-.201 1.456.464.801.664 1.926.918 2.5.563.574-.355 1.044-.12 1.044.521s.675.907 1.5.59c.825-.316 1.5-.064 1.5.56 0 .624.296.839.658.477.362-.362 1.262-.156 2 .456.738.613 1.349.721 1.357.241.009-.479.387-.287.84.428.454.715 1.797 1.373 2.985 1.463 1.188.089 2.16.543 2.16 1.009 0 .465.45.568 1 .228.55-.34 1-.115 1 .5s.45.84 1 .5c.55-.34 1-.115 1 .5s.45.84 1 .5c.55-.34 1-.115 1 .5s.45.84 1 .5c.55-.34 1-.115 1 .5s.45.84 1 .5c.55-.34 1-.214 1 .28 0 1.543 4.323 2.933 8.533 2.744 5.63-.253 9.643-4.336 10.036-10.21.159-2.373-.156-4.314-.699-4.314-.544 0-.71-.45-.37-1 .34-.55.254-1.002-.191-1.005-.445-.002-2.221-1.328-3.947-2.945-1.725-1.618-3.413-2.666-3.75-2.329-.336.337-.612.061-.612-.613 0-.674-.45-.948-1-.608-.55.34-1 .172-1-.374 0-.994-3.843-2.696-5.25-2.324-.413.109-.75-.279-.75-.861s-.45-.781-1-.441-1 .115-1-.5-.412-.864-.915-.553c-.503.311-1.072.093-1.264-.485-.193-.578-1.356-1.127-2.586-1.219-1.229-.093-2.235-.549-2.235-1.015 0-.465-.419-.587-.931-.271-.512.317-1.218.111-1.569-.457-.351-.568-1.057-.774-1.569-.457-.512.316-.931.05-.931-.591s-.675-.907-1.5-.59c-.825.316-1.5.091-1.5-.5 0-.592-.675-.817-1.5-.5-.825.316-1.5.091-1.5-.5 0-.592-.661-.822-1.468-.513-.807.31-1.738.126-2.069-.409a1.148 1.148 0 0 0-1.576-.37c-.536.331-1.63.058-2.431-.606-.801-.665-1.456-.874-1.456-.464s-.655.201-1.456-.464c-.801-.664-1.946-.906-2.544-.536-.598.37-1.723.145-2.5-.5-.777-.645-1.851-.901-2.387-.57-.536.332-1.269.127-1.628-.454-.359-.582-1.478-.796-2.485-.476-1.007.32-2.132.095-2.5-.5-.368-.595-1.552-.801-2.632-.458s-2.612.086-3.403-.571c-.822-.682-2.536-.919-3.998-.552-1.407.353-3.101.291-3.763-.138-1.722-1.117-42.674-1.138-43.363-.023M.286 127.5c.008 2.75.202 3.756.432 2.236.229-1.52.223-3.77-.014-5-.237-1.23-.425.014-.418 2.764m94.412 23.58c-1.03.616-3.451.8-5.648.428-2.487-.42-4.098-.239-4.562.511-.447.723-1.965.927-4.025.54-1.999-.375-3.579-.181-3.994.491-.378.612-1.736.849-3.017.527-1.281-.321-2.596-.152-2.923.376-.326.528-1.259.704-2.074.391-.814-.312-2.079-.071-2.81.535-.731.607-1.606.827-1.944.489-.338-.338-1.422-.267-2.408.16-.986.426-2.347.89-3.023 1.032-1.268.265-4.703 3.355-4.856 4.369-.048.314-.434 1.358-.857 2.321-.424.963-.424 2.537 0 3.5.423.963.809 2.047.857 2.409.157 1.204 5.307 4.787 5.952 4.142.349-.349.634-.109.634.532 0 .642.675 1.167 1.5 1.167s1.5-.48 1.5-1.067c0-.613.853-.797 2-.433 1.225.389 2 .18 2-.54 0-.662.693-.908 1.59-.564.875.336 2.112.28 2.75-.124.638-.404 2.51-.858 4.16-1.009 1.65-.15 4.575-.491 6.5-.758 8.964-1.242 14.439-1.571 26.5-1.59 12.245-.02 17.181.284 25.5 1.567 1.925.296 4.175.596 5 .665.825.069 2.043.553 2.706 1.075.664.523 1.645.679 2.181.348a1.148 1.148 0 0 1 1.576.37c.331.535 1.262.719 2.069.409.807-.309 1.468-.017 1.468.651s.674.955 1.5.638c.825-.316 1.5-.091 1.5.5 0 .592.675.817 1.5.5.825-.316 1.5-.091 1.5.5 0 .592.675.817 1.5.5.825-.316 1.5-.113 1.5.452 0 .566.45.75 1 .41s1-.141 1 .441.338.963.75.847c.412-.117 1.703.317 2.869.964 1.165.648 2.402.893 2.75.546.347-.347.631-.08.631.594 0 .674.45.948 1 .608.55-.34 1-.115 1 .5s.45.84 1 .5c.55-.34 1-.15 1 .422s1.125 1.322 2.5 1.667 2.5.966 2.5 1.379c0 .413 1.851.62 4.114.458 8.171-.582 11.128-8.251 5.713-14.819-1.643-1.994-3.402-3.37-3.907-3.057-.506.312-.92.065-.92-.55s-.45-.84-1-.5c-.55.34-1 .115-1-.5s-.45-.84-1-.5c-.55.34-1 .115-1-.5s-.45-.84-1-.5c-.55.34-1 .115-1-.5s-.45-.84-1-.5c-.55.34-1 .115-1-.5s-.45-.84-1-.5c-.55.34-1 .115-1-.5s-.419-.859-.931-.543c-.512.317-1.218.111-1.569-.457-.351-.568-1.057-.774-1.569-.457-.512.316-.931.072-.931-.543s-.419-.859-.931-.543c-.512.317-1.218.111-1.569-.457-.351-.568-1.057-.774-1.569-.457-.512.316-.931.05-.931-.591s-.675-.907-1.5-.59c-.825.316-1.5.091-1.5-.5 0-.592-.661-.822-1.468-.513-.807.31-1.738.126-2.069-.409-.331-.535-.989-.733-1.463-.44-.474.293-1.163.045-1.532-.552-.369-.596-1.285-.848-2.037-.56-.752.289-1.652.064-2-.5-.348-.563-1.248-.788-2-.5-.752.289-1.634.093-1.96-.435-.327-.528-1.691-.685-3.032-.348-1.584.397-2.439.185-2.439-.605 0-.804-.863-1-2.546-.578-1.4.352-3.088.288-3.75-.141-2.542-1.648-34.524-2.686-37.006-1.201"/></svg>